<?xml version="1.0" encoding="utf-8"?>
<!-- Generator: Adobe Illustrator 19.0.0, SVG Export Plug-In . SVG Version: 6.00 Build 0)  -->
<svg version="1.1" id="图层_1" xmlns="http://www.w3.org/2000/svg" xmlns:xlink="http://www.w3.org/1999/xlink" x="0px" y="0px"
	 viewBox="0 0 1000 1000" style="enable-background:new 0 0 1000 1000;" xml:space="preserve">
<g>
	<path d="M500,116c-209.9,0-384,174.1-384,384s174.1,384,384,384s384-174.1,384-384S709.9,116,500,116L500,116z M500,832.8
		c-184.3,0-332.8-148.5-332.8-332.8S315.7,167.2,500,167.2S832.8,315.7,832.8,500S684.3,832.8,500,832.8L500,832.8z M500,832.8"/>
	<path d="M372,474.4l87-76.8l-35.8-41L269.6,500l148.5,153.6l35.8-35.8l-87-92.2h363.5v-51.2H372z M372,474.4"/>
</g>
</svg>
