<?xml version="1.0" encoding="utf-8"?>
<!-- Generator: Adobe Illustrator 19.0.0, SVG Export Plug-In . SVG Version: 6.00 Build 0)  -->
<svg version="1.1" xmlns="http://www.w3.org/2000/svg" xmlns:xlink="http://www.w3.org/1999/xlink" x="0px" y="0px"
	 viewBox="0 0 1000 1000" style="enable-background:new 0 0 1000 1000;" xml:space="preserve">
<style type="text/css">
	.st0{clip-path:url(#SVGID_2_);}
</style>
<g>
	<g>
		<defs>
			<rect id="SVGID_1_" x="208" y="91" width="583.9" height="819.8"/>
		</defs>
		<clipPath id="SVGID_2_">
			<use xlink:href="#SVGID_1_"  style="overflow:visible;"/>
		</clipPath>
		<path class="st0" d="M774.5,357.4H251.6c-3.1,0-5.6,2.7-5.3,5.8l48.1,504c0,23.4,19,42.5,42.5,42.5h352.5
			c23.4,0,42.5-19,42.5-42.5l48.1-504C780.1,360.2,777.7,357.4,774.5,357.4L774.5,357.4z M402.8,803.4h-15.6
			c-10.4,0-18.9-8.5-18.9-18.9l-19.4-300.8c0-10.4,8.5-18.9,18.9-18.9h15.6c10.4,0,18.9,8.5,18.9,18.9l19.4,300.8
			C421.7,794.9,413.2,803.4,402.8,803.4L402.8,803.4z M539.8,784.5c0,10.4-8.5,18.9-18.9,18.9h-15.6c-10.4,0-18.9-8.5-18.9-18.9
			V483.7c0-10.4,8.5-18.9,18.9-18.9H521c10.4,0,18.9,8.5,18.9,18.9V784.5z M658.5,784.5c0,10.4-8.5,18.9-18.9,18.9H624
			c-10.4,0-18.9-8.5-18.9-18.9l19.4-300.8c0-10.4,8.5-18.9,18.9-18.9H659c10.4,0,18.9,8.5,18.9,18.9L658.5,784.5z M787.2,213.2
			l-564,129.6c-3.2,0.7-6.3-1.3-7-4.4l-7-30.8c-5.4-23.6,9.4-47.4,33-52.8l489.6-112.6c23.6-5.4,47.4,9.4,52.8,33l7,30.8
			C792.3,209.3,790.4,212.5,787.2,213.2L787.2,213.2z M401,192.5c-5.2-22.3,8.8-44.9,31.2-50.1l78.6-18.2
			c22.3-5.2,44.9,8.8,50.1,31.2l3,13l35.4-8.2l-2.5-10.6c-9.4-40.3-50-65.6-90.2-56.2l-83.9,19.5c-40.3,9.4-65.6,50-56.2,90.2
			l2.4,10.5l35.1-8.2L401,192.5z M401,192.5"/>
	</g>
</g>
</svg>
