<?xml version="1.0" encoding="utf-8"?>
<!-- Generator: Adobe Illustrator 19.0.0, SVG Export Plug-In . SVG Version: 6.00 Build 0)  -->
<svg version="1.1" id="图层_1" xmlns="http://www.w3.org/2000/svg" xmlns:xlink="http://www.w3.org/1999/xlink" x="0px" y="0px"
	 viewBox="0 0 45.3 45.3" style="enable-background:new 0 0 45.3 45.3;" xml:space="preserve">
<style type="text/css">
	.st0{fill-rule:evenodd;clip-rule:evenodd;}
</style>
<g id="XMLID_3_">
	<g id="XMLID_77_">
		<path id="XMLID_78_" class="st0" d="M41.1,11.2H12.6v0.5L1.8,23.5c-0.5,0.5-0.5,1.4,0,1.9l10.8,11.6v0.2h28.5
			c1.4,0,2.5-1.1,2.5-2.5V13.7C43.6,12.3,42.5,11.2,41.1,11.2z M33.7,36H13.4l0-0.1L3.8,25.4c-0.5-0.5-0.5-1.4,0-1.9l9.9-11h20V36z
			 M42.4,34.7c0,0.7-0.6,1.3-1.3,1.3h-6.1V12.5h6.1c0.7,0,1.3,0.6,1.3,1.3V34.7z M18.3,27.7c1.9,0,3.4-1.5,3.4-3.4
			c0-1.9-1.5-3.4-3.4-3.4c-1.9,0-3.4,1.5-3.4,3.4C14.9,26.1,16.5,27.7,18.3,27.7z M18.3,22.2c1.1,0,2.1,0.9,2.1,2.1
			c0,1.1-0.9,2.1-2.1,2.1c-1.1,0-2.1-0.9-2.1-2.1C16.3,23.1,17.2,22.2,18.3,22.2z M36.2,26.4L36.2,26.4L36.2,26.4L36.2,26.4z"/>
	</g>
</g>
</svg>
