<?xml version="1.0" encoding="utf-8"?>
<!-- Generator: Adobe Illustrator 19.0.0, SVG Export Plug-In . SVG Version: 6.00 Build 0)  -->
<svg version="1.1" id="图层_1" xmlns="http://www.w3.org/2000/svg" xmlns:xlink="http://www.w3.org/1999/xlink" x="0px" y="0px"
	 viewBox="0 0 1000 1000" style="enable-background:new 0 0 1000 1000;" xml:space="preserve">
<style type="text/css">
	.st0{clip-path:url(#SVGID_2_);}
</style>
<g>
	<path d="M655.8,398H348.6c-6.7,0-12.2-5.4-12.2-12.2c0-6.7,5.4-12.2,12.2-12.2h307.1c6.7,0,12.2,5.4,12.2,12.2
		C668,392.6,662.6,398,655.8,398L655.8,398z M756.6,671.7c-2.4,0-4.8-0.7-7-2.2c-1.4-1-97.4-67.2-194.2-112.2
		c-35,49-82.6,95.4-137.6,95.4c-67.2,0-97.8-41.4-97.8-79.8c0-40.2,33.6-81,97.8-81c36.3,0,82.4,14.5,129,34.7
		c18.7-29,33-57.3,41-74.6H386c-6.7,0-12.2-5.4-12.2-12.2c0-6.7,5.4-12.2,12.2-12.2h238.9l-6.9,16.8c-1.6,3.8-19.2,46.6-48.6,92.4
		c96.2,45.1,188.2,108.6,194.2,112.7c5.5,3.8,7,11.4,3,17C764.2,669.9,760.5,671.7,756.6,671.7L756.6,671.7z M417.8,516.4
		c-50.4,0-73.4,29.3-73.4,56.6c0,27.5,22.7,55.3,73.4,55.3c43.9,0,84-38.5,115-81C490.6,529.1,449.6,516.4,417.8,516.4L417.8,516.4z
		 M417.8,516.4"/>
	<g>
		<defs>
			<rect id="SVGID_1_" x="185" y="185" width="629.9" height="631"/>
		</defs>
		<clipPath id="SVGID_2_">
			<use xlink:href="#SVGID_1_"  style="overflow:visible;"/>
		</clipPath>
		<path class="st0" d="M502.2,439.6c-6.7,0-12.2-5.4-12.2-12.2V319.4c0-6.7,5.4-12.2,12.2-12.2c6.7,0,12.2,5.4,12.2,12.2v107.9
			C514.5,434.1,509,439.6,502.2,439.6L502.2,439.6z M502.2,439.6"/>
		<path class="st0" d="M499.4,815C326,815,184.9,673.9,184.9,500.4c0-173.4,141.1-314.6,314.6-314.6C672.9,185.9,814,327,814,500.4
			c0,58.6-16.2,115.9-47,165.5c-3.5,5.8-11,7.5-16.8,3.9c-5.8-3.6-7.5-11.1-3.9-16.8c28.3-45.8,43.4-98.5,43.4-152.6
			c0-160-130.2-290.1-290.2-290.1S209.4,340.4,209.4,500.4s130.1,290.1,290.1,290.1c44.2,0,86.7-9.7,126.2-28.8
			c6.1-3,13.4-0.4,16.3,5.7c3,6.1,0.4,13.4-5.7,16.3C593.4,804.4,547.4,815,499.4,815L499.4,815z M499.4,815"/>
	</g>
</g>
</svg>
