<?xml version="1.0" encoding="utf-8"?>
<!-- Generator: Adobe Illustrator 19.0.0, SVG Export Plug-In . SVG Version: 6.00 Build 0)  -->
<svg version="1.1" id="图层_1" xmlns="http://www.w3.org/2000/svg" xmlns:xlink="http://www.w3.org/1999/xlink" x="0px" y="0px"
	 viewBox="0 0 1000 1000" style="enable-background:new 0 0 1000 1000;" xml:space="preserve">
<style type="text/css">
	.st0{clip-path:url(#SVGID_2_);}
</style>
<g>
	<g>
		<defs>
			<rect id="SVGID_1_" x="90" y="164" width="819.8" height="673.9"/>
		</defs>
		<clipPath id="SVGID_2_">
			<use xlink:href="#SVGID_1_"  style="overflow:visible;"/>
		</clipPath>
		<path class="st0" d="M488.9,367.4c21.1,0,35.1-14.1,35.1-35.1c0-21.2-14.1-35-35.1-35c-21.1,0-42.3,13.7-42.3,35
			C446.7,353.2,467.9,367.4,488.9,367.4L488.9,367.4z M292.3,297.2c-21.1,0-42.4,13.7-42.4,35c0,21,21.3,35.1,42.4,35.1
			c21,0,35-14.1,35-35.1C327.4,311,313.3,297.2,292.3,297.2L292.3,297.2z M909.1,592.2c0-111.1-103.1-205.8-229.6-215.6
			c0.2-1.4,0.3-2.8-0.1-4.2C654.1,254,526.9,164.9,383.6,164.9c-161.9,0-293.7,112.9-293.7,251.7c0,74.5,38,141.6,110.1,194.5
			l-25.1,75.5c-1.6,4.9-0.2,10.3,3.8,13.7c2.4,2,5.4,3.1,8.4,3.1c1.9,0,3.9-0.5,5.7-1.4l94.3-47.2l11.6,2.4c29,6,54.1,11.1,85,11.1
			c9.1,0,18.3-0.4,27.3-1.2c3.7-0.3,6.8-2.2,8.9-4.8c34,85.1,127.7,146.5,238,146.5c28.2,0,56.8-6.8,82.5-13.2l72.7,39.7
			c1.9,1.1,4,1.6,6.1,1.6c2.9,0,5.7-1,8-2.8c4-3.3,5.7-8.7,4.2-13.6l-18.6-61.7C875,709.6,909.1,650.8,909.1,592.2L909.1,592.2z
			 M408.8,641.7c-8.3,0.7-16.8,1.1-25.1,1.1c-28.3,0-52.2-4.9-79.8-10.6l-16.1-3.2c-2.8-0.6-5.7-0.2-8.2,1.1l-70.6,35.4l18.4-55.1
			c1.8-5.4-0.2-11.3-4.8-14.5c-71-49.5-106.9-109.7-106.9-179.1c0-124.7,120.3-226.1,268.1-226.1c130.7,0,246.4,79.5,270.3,185.3
			c-137,1.8-247.9,98.1-247.9,216.5c0,17.2,2.6,33.9,7,49.9C411.6,641.8,410.2,641.6,408.8,641.7L408.8,641.7z M790.2,743.8
			c-4.3,3.2-6.1,8.8-4.6,13.9l12.1,40.3l-49.7-27.2c-1.9-1-4-1.6-6.1-1.6c-1,0-2.1,0.1-3.1,0.4c-26.7,6.7-54.2,13.7-81.1,13.7
			c-124.7,0-226.2-85.7-226.2-191.1c0-105.3,101.5-191,226.2-191c122.3,0,225.7,87.5,225.7,191C883.5,644.7,850.4,698.5,790.2,743.8
			L790.2,743.8z M580.3,500.9c-14.1,0-28.1,14.2-28.1,28.2c0,14.1,14.1,28.1,28.1,28.1c21.1,0,35.1-14,35.1-28.1
			C615.3,515,601.4,500.9,580.3,500.9L580.3,500.9z M734.7,500.9c-13.8,0-27.9,14.2-27.9,28.2c0,14.1,14.1,28.1,27.9,28.1
			c21,0,35.2-14,35.2-28.1C769.9,515,755.8,500.9,734.7,500.9L734.7,500.9z M734.7,500.9"/>
	</g>
</g>
</svg>
