<?xml version="1.0" encoding="utf-8"?>
<!-- Generator: Adobe Illustrator 19.0.0, SVG Export Plug-In . SVG Version: 6.00 Build 0)  -->
<svg version="1.1" id="图层_1" xmlns="http://www.w3.org/2000/svg" xmlns:xlink="http://www.w3.org/1999/xlink" x="0px" y="0px"
	 viewBox="0 0 1000 1000" style="enable-background:new 0 0 1000 1000;" xml:space="preserve">
<style type="text/css">
	.st0{clip-path:url(#SVGID_2_);}
</style>
<g>
	<g>
		<defs>
			
				<rect id="SVGID_1_" x="93" y="94" transform="matrix(-0.7071 0.7071 -0.7071 -0.7071 1207.6207 501.6271)" width="813.8" height="813.8"/>
		</defs>
		<clipPath id="SVGID_2_">
			<use xlink:href="#SVGID_1_"  style="overflow:visible;"/>
		</clipPath>
		<path class="st0" d="M844.5,730.4c-10.4,10.4-24.9,16.7-40.3,16.7l-610,0c-15.4,0-29.4-5.9-40.3-16.7
			c-10.9-10.9-16.7-24.9-16.7-40.3l0.5-378.8c0-15.4,5.9-29.4,16.7-40.3c10.9-10.9,24.9-16.7,40.3-16.7l610,0c31.7,0,57,25.3,57,57
			l0,378.3C860.8,706,854.5,720.5,844.5,730.4L844.5,730.4z M172.1,289.6c-5.9,5.9-9.1,13.6-9.5,22.2l0.5,378.8
			c0,8.1,3.2,15.8,9.5,22.2c6.3,6.3,13.6,9.1,22.2,9.5l610,0c17.2,0,31.2-14,31.2-31.2l0-378.3c0-17.2-14-31.2-31.2-31.2l-610.5-1.4
			C186.1,280.1,177.9,283.8,172.1,289.6L172.1,289.6z M172.1,289.6"/>
	</g>
	<path d="M852.7,617.3c-1.4,1.4-2.7,1.8-4.5,1.8H150.3c-3.6,0-6.3-2.7-6.3-6.3l0-101.4c0-3.6,2.7-6.3,6.3-6.3l697.8,0
		c3.6,0,6.3,2.7,6.3,6.3l0,101.4C854.5,614.6,853.6,616.4,852.7,617.3L852.7,617.3z M156.7,606.4l685.2,0l0-88.7l-685.2,0.9V606.4z
		 M219.6,700.1c-1.4,1.4-2.7,1.8-4.5,1.8c-3.6,0-6.3-2.7-6.3-6.3l0-41.6c0-3.6,2.7-6.3,6.3-6.3c3.6,0,6.3,2.7,6.3,6.3l0,41.6
		C221.4,697.4,220.5,699.2,219.6,700.1L219.6,700.1z M291.5,700.6c-1.4,1.4-2.7,1.8-4.5,1.8c-3.6,0-6.3-2.7-6.3-6.3l0-41.6
		c0-3.6,2.7-6.3,6.3-6.3c3.6,0,6.3,2.7,6.3,6.3l0,41.6C293.3,697.8,292.9,699.2,291.5,700.6L291.5,700.6z M363.5,700.1
		c-1.4,1.4-2.7,1.8-4.5,1.8c-3.6,0-6.3-2.7-6.3-6.3l0-41.6c0-3.6,2.7-6.3,6.3-6.3c3.6,0,6.3,2.7,6.3,6.3l0,41.6
		C365.3,697.4,364.8,698.7,363.5,700.1L363.5,700.1z M779.4,443.5c-12.7,12.7-30.3,20.4-49.3,20.4c-38.9,0-70.1-31.2-69.7-69.7
		c0-38.9,31.2-70.1,69.7-69.7c38.9,0,70.1,31.2,69.7,69.7C799.7,413.2,792,430.8,779.4,443.5L779.4,443.5z M689.8,353.9
		c-10.4,10.4-16.7,24.9-16.7,40.3c0,31.7,25.3,57,57,57c31.7,0,57-25.3,57-57c0-31.7-25.3-57-57-57
		C714.2,336.7,700.2,343.5,689.8,353.9L689.8,353.9z M689.8,353.9"/>
</g>
</svg>
