<?xml version="1.0" encoding="utf-8"?>
<!-- Generator: Adobe Illustrator 19.0.0, SVG Export Plug-In . SVG Version: 6.00 Build 0)  -->
<svg version="1.1" id="图层_1" xmlns="http://www.w3.org/2000/svg" xmlns:xlink="http://www.w3.org/1999/xlink" x="0px" y="0px"
	 viewBox="0 0 1000 1000" style="enable-background:new 0 0 1000 1000;" xml:space="preserve">
<style type="text/css">
	.st0{clip-path:url(#SVGID_2_);}
</style>
<g>
	<g>
		<defs>
			<rect id="SVGID_1_" x="93" y="263" width="812.9" height="475.9"/>
		</defs>
		<clipPath id="SVGID_2_">
			<use xlink:href="#SVGID_1_"  style="overflow:visible;"/>
		</clipPath>
		<path class="st0" d="M892.9,738H105.7c-7,0-12.8-5.8-12.8-12.8V275.9c0-7,5.8-12.8,12.8-12.8h787.2c7,0,12.8,5.8,12.8,12.8v449.9
			C905.7,732.2,899.9,738,892.9,738L892.9,738z M118.5,712.4h761.6V288.7H118.5V712.4z M118.5,712.4"/>
	</g>
	<path d="M752.7,673.3H244.6c-3.8,0-6.4-2.6-6.4-6.4c0-40.3-33.3-73.6-73.6-73.6c-3.8,0-6.4-2.6-6.4-6.4V414.8
		c0-3.8,2.6-6.4,6.4-6.4c40.3,0,73.6-33.3,73.6-73.6c0-3.8,2.6-6.4,6.4-6.4h508.2c3.8,0,6.4,2.6,6.4,6.4c0,40.3,33.3,73.6,73.6,73.6
		h1.3c1.9,0,3.2,0.6,4.5,1.9c1.3,1.3,1.9,2.6,1.9,4.5v172.2c0,1.9-0.6,3.2-1.9,4.5c-1.3,1.3-3.2,1.9-4.5,1.9h-1.3
		c-40.3,0-73.6,33.3-73.6,73.6C759.1,670.1,755.9,673.3,752.7,673.3L752.7,673.3z M251,660.5h495.4c3.2-42.9,37.8-77.4,81.3-80v-160
		c-43.5-2.6-78.1-37.1-81.3-80H251c-3.2,42.9-37.1,76.8-80,80v160C213.2,583.7,247.8,617.6,251,660.5L251,660.5z M251,660.5"/>
	<path d="M422.5,541.5h56.3v-16l-1.3-1.9h-55v-26.2h39.7l-59.5-101.1H441l56.3,95.4h1.9l58.2-95.4h37.8l-62.1,101.1h39v26.2h-55
		l-0.6,1.9v16h55.7v26.2h-56.3v37.1h-37.1v-37.1h-56.3V541.5z M422.5,541.5"/>
</g>
</svg>
