<svg id="图层_1" data-name="图层 1" xmlns="http://www.w3.org/2000/svg" viewBox="0 0 16 16"><title>4</title><path d="M14.93,6.4H13.64a6.07,6.07,0,0,0-.54-1.29l.9-.93a1.06,1.06,0,0,0,0-1.52l-.76-.76a1.05,1.05,0,0,0-1.51,0l-1,1a5.79,5.79,0,0,0-1.21-.49V1.07A1.07,1.07,0,0,0,8.53,0H7.47A1.07,1.07,0,0,0,6.4,1.07V2.36a5.87,5.87,0,0,0-1.25.51l-1-1a1.06,1.06,0,0,0-1.52,0l-.76.76a1.06,1.06,0,0,0,0,1.52l1,1A5.87,5.87,0,0,0,2.36,6.4H1.07A1.07,1.07,0,0,0,0,7.47V8.53A1.07,1.07,0,0,0,1.07,9.6H2.36a5.79,5.79,0,0,0,.49,1.21l-1,.95a1.05,1.05,0,0,0,0,1.51l.76.76a1.06,1.06,0,0,0,1.52,0l.93-.93a6.07,6.07,0,0,0,1.29.54v1.29A1.07,1.07,0,0,0,7.47,16H8.53A1.07,1.07,0,0,0,9.6,14.93V13.64a5.87,5.87,0,0,0,1.25-.51l.91.9a1.05,1.05,0,0,0,1.51,0l.76-.76a1.05,1.05,0,0,0,0-1.51l-.9-.91a5.87,5.87,0,0,0,.51-1.25h1.29A1.06,1.06,0,0,0,16,8.53V7.47A1.07,1.07,0,0,0,14.93,6.4ZM8,12a4,4,0,1,1,4-4,4,4,0,0,1-4,4Zm0,0" transform="translate(0 0)"/></svg>