<svg xmlns="http://www.w3.org/2000/svg" viewBox="0 0 16 13.33"><path d="M12.8,12.92H16V11.26H12.8ZM11.2,4.6V6.26H16V4.6Zm.8,5h4V7.93H12Zm-3.82-1A4.28,4.28,0,0,0,9.36,4,4,4,0,0,0,5.6,1.25,4,4,0,0,0,1.84,4,4.28,4.28,0,0,0,3,8.59a5.84,5.84,0,0,0-3,5.16,5.69,5.69,0,0,0,.06.83h1.6a5.69,5.69,0,0,1-.06-.83,4.08,4.08,0,0,1,4-4.16,4.08,4.08,0,0,1,4,4.16,4.58,4.58,0,0,1-.08.83h1.6a5.69,5.69,0,0,0,.08-.83,5.84,5.84,0,0,0-3-5.16ZM5.6,7.93a2.45,2.45,0,0,1-2.4-2.5A2.44,2.44,0,0,1,5.6,2.94,2.44,2.44,0,0,1,8,5.43,2.56,2.56,0,0,1,7.3,7.2a2.39,2.39,0,0,1-1.7.73Zm0,0" transform="translate(0 -1.25)"/></svg>